<?xml version="1.0" encoding="iso-8859-1"?>
<!-- Generator: Adobe Illustrator 19.0.0, SVG Export Plug-In . SVG Version: 6.00 Build 0)  -->
<svg version="1.1" id="Capa_1" xmlns="http://www.w3.org/2000/svg" xmlns:xlink="http://www.w3.org/1999/xlink" x="0px" y="0px"
	 viewBox="0 0 56 56" style="enable-background:new 0 0 56 56;" xml:space="preserve">
<g>
	<g>
	</g>
	<g>
		<path d="M47,0H17c-2.446,0-4.479,1.768-4.908,4.092c-2.028,0.375-3.625,1.972-4,4C5.768,8.521,4,10.554,4,13v38
			c0,2.757,2.243,5,5,5h30c2.446,0,4.479-1.768,4.908-4.092c2.028-0.375,3.625-1.972,4-4C50.232,47.479,52,45.446,52,43V5
			C52,2.243,49.757,0,47,0z M42,51c0,1.654-1.346,3-3,3H9c-1.654,0-3-1.346-3-3V13c0-1.654,1.346-3,3-3h30c1.654,0,3,1.346,3,3V51z
			 M46,47c0,1.302-0.839,2.402-2,2.816V13c0-2.757-2.243-5-5-5H10.184C10.598,6.839,11.698,6,13,6h30c1.654,0,3,1.346,3,3V47z
			 M50,43c0,1.302-0.839,2.402-2,2.816V9c0-2.757-2.243-5-5-5H14.184C14.598,2.839,15.698,2,17,2h30c1.654,0,3,1.346,3,3V43z"/>
		<path d="M14.707,16.293l-1.414,1.414l2,2C15.488,19.902,15.744,20,16,20s0.512-0.098,0.707-0.293l5-5l-1.414-1.414L16,17.586
			L14.707,16.293z"/>
		<path d="M20,22h-8v-8h6v-2h-7c-0.552,0-1,0.447-1,1v10c0,0.553,0.448,1,1,1h10c0.552,0,1-0.447,1-1v-5h-2V22z"/>
		<path d="M14.707,30.293l-1.414,1.414l2,2C15.488,33.902,15.744,34,16,34s0.512-0.098,0.707-0.293l5-5l-1.414-1.414L16,31.586
			L14.707,30.293z"/>
		<path d="M20,36h-8v-8h6v-2h-7c-0.552,0-1,0.447-1,1v10c0,0.553,0.448,1,1,1h10c0.552,0,1-0.447,1-1v-5h-2V36z"/>
		<path d="M14.707,44.293l-1.414,1.414l2,2C15.488,47.902,15.744,48,16,48s0.512-0.098,0.707-0.293l5-5l-1.414-1.414L16,45.586
			L14.707,44.293z"/>
		<path d="M20,50h-8v-8h6v-2h-7c-0.552,0-1,0.447-1,1v10c0,0.553,0.448,1,1,1h10c0.552,0,1-0.447,1-1v-5h-2V50z"/>
		<rect x="24" y="13" width="14" height="2"/>
		<rect x="24" y="17" width="14" height="2"/>
		<rect x="24" y="21" width="14" height="2"/>
		<rect x="24" y="27" width="14" height="2"/>
		<rect x="24" y="31" width="14" height="2"/>
		<rect x="24" y="35" width="14" height="2"/>
		<rect x="24" y="41" width="14" height="2"/>
		<rect x="24" y="45" width="14" height="2"/>
		<rect x="24" y="49" width="14" height="2"/>
	</g>
</g>
<g>
</g>
<g>
</g>
<g>
</g>
<g>
</g>
<g>
</g>
<g>
</g>
<g>
</g>
<g>
</g>
<g>
</g>
<g>
</g>
<g>
</g>
<g>
</g>
<g>
</g>
<g>
</g>
<g>
</g>
</svg>
